<svg width="256" height="256" viewBox="0 0 256 256" fill="none" xmlns="http://www.w3.org/2000/svg">
<rect width="256" height="256" fill="black"/>
<path d="M128 18C128 18 133.018 72.7716 133.96 115.264C161.14 92.2131 197.267 65.775 197.267 65.775C197.267 65.775 167.955 98.2174 142.364 122.67C184.613 123.598 238 128 238 128C238 128 184.508 132.41 142.239 133.332C167.83 157.785 197.139 190.226 197.139 190.226C197.139 190.226 161.123 163.868 133.957 140.843C133.009 183.32 128 238 128 238C128 238 122.999 183.411 122.045 140.949C94.8937 163.949 58.9878 190.226 58.9878 190.226C58.9878 190.226 88.2953 157.788 113.886 133.335C71.5976 132.419 18 128 18 128C18 128 71.4921 123.59 113.761 122.668C88.1699 98.2149 58.8607 65.7748 58.8607 65.7748C58.8607 65.7748 94.8767 92.1321 122.043 115.158C122.991 72.6806 128 18 128 18Z" fill="url(#paint0_radial_2_9)"/>
<defs>
<radialGradient id="paint0_radial_2_9" cx="0" cy="0" r="1" gradientUnits="userSpaceOnUse" gradientTransform="translate(128 123.875) rotate(54.6441) scale(139.932 112.636)">
<stop stop-color="white"/>
<stop offset="1"/>
</radialGradient>
</defs>
</svg>
